PathFileType	4	(X/Y/Z)	C:\Users\Willi\SynologyDrive\Deimel_MSc_Deadlift\Athlete_03\Athlete_3_22_07_06\dl_90\marker_experimental.trc
DataRate	CameraRate	NumFrames	NumMarkers	Units	OrigDataRate	OrigDataStartFrame	OrigNumFrames
200.000000	200.000000	4	59	mm	200.000000	2695	5390
Frame#	Time	BR			GLAB			RFHD			LFHD			C7			T6			SPINMOL			SPINM2			SPINM3			T12			BELTOL			BELT2			BELT3			SACROL			SACR2			SACR3			LTHOL			LTH2			LTH3			LSHAOL			LSHA2			LSHA3			LHEE			LTOE			LM5			RTHOL			RTH2			RTH3			RSHAOL			RSHA2			RSHA3			RHEE			RTOE			RM5			STRN			XIPH			LACR			LUAOL			LUA2			LUA3			LLAOL			LLA2			LLA3			LWRU			RACR			RUAOL			RUA2			RUA3			RLAOL			RLA2			RLA3			RWRU			BL			USERMO0			USERMO1			USERMO2			USERMO3			USERMO4			USERMO5			
		X1	Y1	Z1	X2	Y2	Z2	X3	Y3	Z3	X4	Y4	Z4	X5	Y5	Z5	X6	Y6	Z6	X7	Y7	Z7	X8	Y8	Z8	X9	Y9	Z9	X10	Y10	Z10	X11	Y11	Z11	X12	Y12	Z12	X13	Y13	Z13	X14	Y14	Z14	X15	Y15	Z15	X16	Y16	Z16	X17	Y17	Z17	X18	Y18	Z18	X19	Y19	Z19	X20	Y20	Z20	X21	Y21	Z21	X22	Y22	Z22	X23	Y23	Z23	X24	Y24	Z24	X25	Y25	Z25	X26	Y26	Z26	X27	Y27	Z27	X28	Y28	Z28	X29	Y29	Z29	X30	Y30	Z30	X31	Y31	Z31	X32	Y32	Z32	X33	Y33	Z33	X34	Y34	Z34	X35	Y35	Z35	X36	Y36	Z36	X37	Y37	Z37	X38	Y38	Z38	X39	Y39	Z39	X40	Y40	Z40	X41	Y41	Z41	X42	Y42	Z42	X43	Y43	Z43	X44	Y44	Z44	X45	Y45	Z45	X46	Y46	Z46	X47	Y47	Z47	X48	Y48	Z48	X49	Y49	Z49	X50	Y50	Z50	X51	Y51	Z51	X52	Y52	Z52	X53	Y53	Z53	X54	Y54	Z54	X55	Y55	Z55	X56	Y56	Z56	X57	Y57	Z57	X58	Y58	Z58	X59	Y59	Z59	

2696	13.475	263.0107421875	251.5375671386719	-105.257095336914	615.9827880859375	751.0145874023439	-1206.132202148438	616.7186279296875	815.8098144531251	-1131.504760742188	613.7700805664062	810.1933593750001	-1287.314086914062	474.6278686523438	959.3961791992189	-1212.043090820312	287.1260681152344	1031.824340820312	-1219.736572265625	253.126953125	1042.548828125	-1219.855102539062	193.2418365478516	1045.918334960938	-1166.713256835938	191.1166687011719	1045.6279296875	-1216.521850585938	131.4750213623047	1036.973754882812	-1217.600341796875	47.34021759033203	1058.48095703125	-1218.623901367188	-6.988059997558594	1032.796997070312	-1165.824096679688	-11.29333972930908	1037.596069335938	-1215.585815429688	-71.43824005126953	984.6311645507814	-1235.179321289062	-59.34804534912109	986.3136596679689	-1185.492309570312	-118.3376770019531	959.1209716796876	-1195.981811523438	30.86270713806152	721.3610839843751	-1451.093139648438	18.49618530273438	642.3777465820314	-1445.982421875	61.84346389770508	667.7415161132814	-1452.370971679688	118.1194915771484	345.9245910644532	-1469.640869140625	75.98970031738281	279.6493530273439	-1461.8037109375	125.2827606201172	284.3347473144532	-1465.166381835938	43.42263031005859	66.43643188476571	-1382.626831054688	252.8251953125	75.52425384521493	-1390.616577148438	208.6369018554688	56.04326248168955	-1495.967407226562	38.70670318603516	688.0018310546876	-980.6075439453125	111.6386184692383	656.5251464843751	-971.49169921875	67.52145385742188	633.0613403320314	-975.5599365234375	105.4977951049805	341.3032226562501	-961.0149536132812	145.3081970214844	272.3831481933594	-960.3561401367188	96.80836486816406	281.2660522460938	-970.3016357421875	52.47670364379883	64.29213714599616	-1061.896728515625	260.6658325195312	70.54998016357428	-1031.564208984375	208.5277557373047	67.32396697998053	-937.0714111328125	410.0997619628906	801.9500732421876	-1218.087890625	259.3901977539062	751.4088745117189	-1205.614624023438	433.4639892578125	838.6025390625001	-1408.937255859375	377.8316345214844	731.3975830078126	-1484.589721679688	334.76171875	685.1200561523439	-1506.209838867188	374.2830200195312	665.6349487304689	-1479.452026367188	306.2900085449219	456.906707763672	-1492.980102539062	273.2682800292969	402.594451904297	-1509.987182617188	301.9322814941406	396.4803161621095	-1469.306884765625	262.7247619628906	310.6383056640626	-1494.04931640625	438.9312744140625	832.7755126953126	-1032.677978515625	388.3877868652344	689.7216186523439	-986.5821533203125	371.58251953125	634.8131103515626	-1017.672485351562	371.0652160644531	629.2260131835939	-967.5135498046875	317.6128540039062	441.5799560546876	-965.01171875	305.5603637695312	386.9122009277344	-997.6630859375	297.3519897460938	382.8574523925782	-947.3432006835938	275.9959411621094	311.4829101562501	-946.8005981445312	212.897216796875	251.3125762939455	-2327.6181640625	0.0375376008450985	0.008755000308156015	-0.03903499990701675	0.007700109854340553	0.01153849996626377	-0.008466240018606186	0.005408959928900003	0.006479219999164344	-0.007468210067600012	0.006388059817254543	2.132450103759766	-2.078180074691772	1.858520030975342	2.842220067977905	-1.964580059051513	2.828619956970215	0	0	
2697	13.48	262.9864501953125	251.5384979248047	-105.2564315795898	615.9464721679688	751.0025024414064	-1206.208740234375	616.7279052734375	815.8276977539064	-1131.547241210938	613.7601318359375	810.2142333984376	-1287.352172851562	474.6935729980469	959.4259033203126	-1212.071044921875	287.2107238769531	1031.84375	-1219.765869140625	253.2060546875	1042.569946289062	-1219.879760742188	193.3285369873047	1045.960815429688	-1166.73046875	191.198486328125	1045.669311523438	-1216.541137695312	131.5322875976562	1037.035888671875	-1217.613159179688	47.3858528137207	1058.496826171875	-1218.632080078125	-6.938865661621094	1032.825561523438	-1165.806884765625	-11.25176811218262	1037.623413085938	-1215.5791015625	-71.41532897949219	984.6683959960939	-1235.1484375	-59.31182861328125	986.3546752929689	-1185.461791992188	-118.3062896728516	959.1641235351564	-1195.937622070312	30.80866050720215	721.3854980468751	-1451.09521484375	18.43561172485352	642.4030761718751	-1445.968872070312	61.78310012817383	667.7643432617189	-1452.381713867188	118.0652465820312	345.9357910156251	-1469.64892578125	75.94609832763672	279.653533935547	-1461.801513671875	125.2399215698242	284.349334716797	-1465.178344726562	43.42530059814453	66.43373107910165	-1382.623291015625	252.8254852294922	75.52979278564462	-1390.614990234375	208.6389465332031	56.04714202880869	-1495.964965820312	38.75219345092773	688.0184326171876	-980.5936279296875	111.6820297241211	656.5402221679689	-971.4904174804688	67.56101989746094	633.0761108398439	-975.5567626953125	105.506591796875	341.3126220703126	-961.0277099609375	145.3163757324219	272.3918762207032	-960.3679809570312	96.81619262695312	281.2740478515626	-970.313720703125	52.47887420654297	64.29219818115241	-1061.897216796875	260.6769104003906	70.54291534423834	-1031.5654296875	208.5320892333984	67.32853698730474	-937.07421875	410.2804870605469	801.9417114257814	-1218.097045898438	259.5625915527344	751.3944091796876	-1205.584228515625	433.6535339355469	838.5565185546876	-1408.930297851562	378.0422973632812	731.3064575195314	-1484.577514648438	334.9626159667969	685.0366210937501	-1506.19189453125	374.4602661132812	665.5468139648439	-1479.418212890625	306.3461608886719	456.8650512695314	-1492.991943359375	273.2886352539062	402.5678710937501	-1509.988159179688	301.95068359375	396.4303588867189	-1469.31005859375	262.7092590332031	310.6141967773439	-1494.060913085938	439.1086120605469	832.7670898437501	-1032.710815429688	388.5282897949219	689.6671142578126	-986.6510009765625	371.702880859375	634.7603759765626	-1017.763793945312	371.1890258789062	629.1738281250001	-967.5975341796875	317.6510314941406	441.5456542968751	-965.0422973632812	305.578369140625	386.8746337890626	-997.67578125	297.3575744628906	382.8395690917969	-947.3544921875	275.9766235351562	311.4710693359376	-946.7945556640625	212.8833465576172	251.3125610351564	-2327.618408203125	0.03715350106358528	0.008753820322453977	-0.03940770030021667	0.007707769982516766	0.01150679960846901	-0.008457750082015991	0.005447439849376678	0.006438480224460364	-0.007438039872795343	0.006429560016840696	2.131759881973267	-2.077409982681274	1.859889984130859	2.841350078582764	-1.968379974365234	2.829530000686646	0	0	
2698	13.485	262.9620361328125	251.5395965576172	-105.2556533813476	615.9120483398438	750.9895019531251	-1206.2841796875	616.7388305664062	815.8433837890626	-1131.589599609375	613.7511596679688	810.2341918945314	-1287.390258789062	474.7602233886719	959.4539184570314	-1212.097900390625	287.2987976074219	1031.863891601562	-1219.79443359375	253.2873840332031	1042.589965820312	-1219.902954101562	193.4173889160156	1046.002075195312	-1166.746337890625	191.2823791503906	1045.709838867188	-1216.558959960938	131.5913696289062	1037.09765625	-1217.623901367188	47.43295669555664	1058.512329101562	-1218.6396484375	-6.887322902679443	1032.853881835938	-1165.788208007812	-11.20841598510742	1037.650512695312	-1215.571655273438	-71.39083862304688	984.7064819335939	-1235.116943359375	-59.27378463745117	986.3959960937501	-1185.4296875	-118.2733306884766	959.2069091796876	-1195.89208984375	30.74763298034668	721.4082641601564	-1451.101196289062	18.36843109130859	642.4264526367189	-1445.9580078125	61.71554183959961	667.7854003906251	-1452.398681640625	118.0085372924805	345.9452209472657	-1469.660522460938	75.89997863769531	279.6558837890626	-1461.801391601562	125.1944274902344	284.362518310547	-1465.193359375	43.42731094360352	66.43140411376962	-1382.619995117188	252.8252868652344	75.53550720214852	-1390.613647460938	208.6406402587891	56.0503692626954	-1495.962890625	38.79951858520508	688.0352783203126	-980.5770263671875	111.7272186279297	656.5548095703126	-971.4882202148438	67.60220336914062	633.0908203125001	-975.5516357421875	105.5169448852539	341.3216247558594	-961.0387573242188	145.3260803222656	272.3999633789063	-960.37890625	96.82545471191406	281.2814941406251	-970.3245239257812	52.48096466064453	64.29230499267585	-1061.89794921875	260.6878662109375	70.53581237792974	-1031.567260742188	208.5364685058594	67.33306884765631	-937.0772705078125	410.4585876464844	801.9323730468751	-1218.106567382812	259.7325744628906	751.3807373046876	-1205.55029296875	433.839599609375	838.5102539062501	-1408.923950195312	378.2452697753906	731.2171020507814	-1484.567626953125	335.1538696289062	684.9546508789064	-1506.175537109375	374.6300659179688	665.4602050781251	-1479.388061523438	306.3970336914062	456.8236694335939	-1493.004516601562	273.3045043945312	402.5411682128907	-1509.989135742188	301.9663696289062	396.3807373046876	-1469.313842773438	262.6917419433594	310.5903930664064	-1494.072631835938	439.2848205566406	832.7568359375001	-1032.743530273438	388.6664123535156	689.6116333007814	-986.71923828125	371.8203735351562	634.7067871093751	-1017.854125976562	371.3097839355469	629.1205444335939	-967.6820678710938	317.6860656738281	441.5094299316407	-965.0728149414062	305.59716796875	386.8354492187501	-997.6869506835938	297.3609313964844	382.8198547363282	-947.365234375	275.9552612304688	311.4589538574219	-946.7864990234375	212.8692169189453	251.3126068115236	-2327.61865234375	0.03644450008869171	0.008717530407011511	-0.03959840163588524	0.007711729966104031	0.01143159996718168	-0.008436149917542934	0.005487100221216679	0.006407559849321843	-0.00739376014098525	0.006468350067734718	2.131190061569214	-2.076299905776978	1.865769982337952	2.840480089187622	-1.971959948539734	2.830529928207397	0	0	
2699	13.49	262.9375305175781	251.5408325195312	-105.2547454833984	615.8799438476562	750.9757690429689	-1206.358276367188	616.7513427734375	815.8568115234376	-1131.6318359375	613.7431030273438	810.2530517578126	-1287.42822265625	474.8276062011719	959.4803466796876	-1212.1240234375	287.3895568847656	1031.88427734375	-1219.822387695312	253.3706665039062	1042.60888671875	-1219.9248046875	193.5079345703125	1046.041870117188	-1166.760986328125	191.3678894042969	1045.749389648438	-1216.575439453125	131.6518249511719	1037.158569335938	-1217.6328125	47.48124313354492	1058.527221679688	-1218.646240234375	-6.833693504333496	1032.881591796875	-1165.768432617188	-11.16352367401123	1037.67724609375	-1215.563232421875	-71.36483764648438	984.7452392578126	-1235.085327148438	-59.2341423034668	986.4373168945314	-1185.396362304688	-118.2390594482422	959.2490844726564	-1195.845458984375	30.68049812316895	721.4291381835939	-1451.1103515625	18.29549026489258	642.4478149414064	-1445.94970703125	61.64164352416992	667.8044433593751	-1452.421020507812	117.9495697021484	345.9530334472657	-1469.675048828125	75.85163879394531	279.6565246582032	-1461.802856445312	125.1465454101562	284.3743896484376	-1465.211303710938	43.42878723144531	66.42948913574227	-1382.6171875	252.8247985839844	75.54120635986337	-1390.612426757812	208.6420745849609	56.05297088623056	-1495.9609375	38.84859466552734	688.0522460937501	-980.5580444335938	111.774169921875	656.5688476562501	-971.4850463867188	67.64501190185547	633.1055297851564	-975.5446166992188	105.5287628173828	341.3302917480469	-961.0481567382812	145.3371887207031	272.4074401855469	-960.3888549804688	96.83607482910156	281.2883300781251	-970.333984375	52.48299789428711	64.29250335693366	-1061.899291992188	260.6987609863281	70.52873229980474	-1031.569946289062	208.5408782958984	67.33753204345709	-937.0806274414062	410.6340026855469	801.9221191406251	-1218.116943359375	259.900146484375	751.3674316406251	-1205.513793945312	434.0217895507812	838.4644775390626	-1408.918701171875	378.4393920898438	731.1302490234376	-1484.560546875	335.3342895507812	684.8746948242189	-1506.160766601562	374.791748046875	665.3759155273439	-1479.362426757812	306.4427795410156	456.7828674316407	-1493.017456054688	273.3161315917969	402.5145568847657	-1509.990478515625	301.9795837402344	396.3316955566407	-1469.318359375	262.6724243164062	310.5670166015626	-1494.084716796875	439.4599304199219	832.7445678710939	-1032.776245117188	388.802001953125	689.5551757812501	-986.7863159179688	371.9349365234375	634.6527709960939	-1017.94189453125	371.4275207519531	629.0662841796876	-967.765869140625	317.7179260253906	441.4712829589844	-965.1033325195312	305.6160278320312	386.7945556640626	-997.69677734375	297.3620300292969	382.7984008789063	-947.3756103515625	275.9319152832031	311.4466552734376	-946.7764282226562	212.8547668457031	251.3127288818361	-2327.618896484375	0.03544040024280548	0.008652620017528536	-0.03968429937958717	0.007708820048719645	0.01130199991166592	-0.008410469628870487	0.005527489818632603	0.006384099833667279	-0.007335999980568886	0.006505460012704134	2.130919933319092	-2.074990034103394	1.875079989433289	2.839620113372803	-1.975360035896301	2.831629991531372	0	0	
